<svg width="69" height="69" viewBox="0 0 69 69" fill="none" xmlns="http://www.w3.org/2000/svg">
<path d="M55.9331 24.0609C54.3864 21.9104 50.8214 17.4915 45.3503 10.925C42.9755 8.07588 40.9371 5.658 39.9338 4.47062C39.4675 3.91742 38.9999 3.36541 38.5308 2.81463L37.9356 2.11025L37.6108 1.72787L37.5475 1.63587L37.5188 1.6215L36.1388 0L34.3879 1.403C29.9173 4.98525 26.2574 9.59962 23.805 14.743C22.3014 17.802 21.321 20.7949 20.8064 23.874C20.6713 24.5669 20.5534 25.2799 20.4585 25.9958C19.8576 25.9469 19.2481 25.9152 18.6415 25.9009C18.5898 25.898 18.5409 25.8951 18.4719 25.8922C16.2593 25.8149 14.0481 26.0807 11.9169 26.68L11.0055 26.9359L10.5369 27.7581C8.33751 31.6164 7.09263 36.0065 6.93738 40.4541C6.73613 46.2329 8.30876 51.8219 11.4885 56.626C14.5993 61.3209 18.9923 64.9118 24.196 67.0076L24.8745 67.2808L25.0786 67.3526L25.0873 67.3498C27.8028 68.3336 30.656 68.8847 33.5426 68.9827C33.8704 68.9942 34.1981 69 34.5259 69C38.1858 69 41.7508 68.2841 45.1346 66.8667L45.1576 66.8783L46.0575 66.4614C50.6218 64.35 54.5249 61.0354 57.3476 56.8732C60.2514 52.5895 61.8815 47.5755 62.0655 42.3775C62.2811 36.1646 60.2169 30.0035 55.9331 24.0609ZM35.5695 43.309C36.5125 46.8855 36.3285 50.324 35.0204 53.5382C31.7573 50.3182 29.3653 46.7762 27.9048 43.0014C26.3436 38.9649 25.4035 35.1239 25.1045 31.5733C26.4845 32.0246 27.7553 32.6255 28.8851 33.3615C32.1396 35.4804 34.3879 38.8269 35.5695 43.309ZM36.1646 60.6222C37.5504 61.6803 39.0109 62.6693 40.5145 63.5778C38.2979 64.1815 36.0151 64.446 33.7036 64.3626C33.3457 64.3499 32.9882 64.3288 32.6313 64.2994C33.948 63.1666 35.1296 61.9333 36.1618 60.6222H36.1646ZM40.0373 42.1331C38.5538 36.5067 35.6471 32.2518 31.4065 29.4889C29.5464 28.2785 27.4246 27.3585 25.0988 26.7576C25.1304 26.3724 25.1735 25.9871 25.2224 25.6076C25.2626 25.2827 25.3086 24.9866 25.3546 24.7078C25.737 22.7269 26.3091 20.769 27.048 18.8859C27.3326 18.1671 27.6403 17.4513 27.9709 16.7584L27.9824 16.7354C28.4913 15.7061 29.0634 14.6683 29.7361 13.5585L30.0006 13.1215L29.992 13.1186C31.556 10.672 33.4334 8.441 35.5753 6.4745L36.4033 7.45487C38.3353 9.74337 40.1523 11.9054 41.8025 13.8862C45.5141 18.3396 50.3298 24.1874 52.187 26.7663C55.8584 31.8579 57.6294 37.0559 57.4483 42.2194C57.3074 46.23 56.1229 50.14 54.0126 53.5267C52.0174 56.7352 49.2373 59.4205 45.9626 61.3123C44.1341 60.398 41.4805 58.9001 38.663 56.7151C40.9343 52.187 41.4 47.2851 40.0401 42.1331H40.0373ZM32.6341 57.6495C30.5498 60.3491 28.0715 62.1058 26.6254 62.9855C26.3925 62.9021 26.1568 62.813 25.9268 62.7181L25.7399 62.6434C21.4561 60.8724 17.8423 57.8824 15.2893 53.9896C12.6816 50.0106 11.3908 45.3848 11.5575 40.6123C11.6754 37.191 12.5293 33.9221 14.0933 30.8976C15.0018 30.6964 15.9275 30.5699 16.8533 30.521L17.0948 30.5153C17.5605 30.5066 18.0263 30.5066 18.469 30.5153C19.1216 30.5469 19.7743 30.6159 20.4154 30.7165C20.6253 35.0664 21.6948 39.7584 23.5923 44.666C25.4236 49.3925 28.4625 53.7568 32.6313 57.6466L32.6341 57.6495Z" fill="#ECAA71"/>
</svg>
