<svg width="46" height="52" viewBox="0 0 46 52" fill="none" xmlns="http://www.w3.org/2000/svg">
<g clip-path="url(#clip0_35_236)">
<path d="M45.1374 23.9789L25.0535 4.1133C24.4973 3.56505 23.7441 3.2572 22.9589 3.2572C22.1736 3.2572 21.4204 3.56505 20.8642 4.1133L16.6852 8.23674L21.9732 13.4672C24.7557 12.543 27.3843 15.1735 26.4294 17.9055L31.5325 22.9531C35.0441 21.7547 37.8165 26.1016 35.1776 28.7117C32.4566 31.4031 27.9696 28.4172 29.4276 24.9235L24.6633 20.211V32.5914C27.2611 33.861 26.9531 36.8469 25.5977 38.1774C25.2705 38.5023 24.8817 38.76 24.4535 38.9359C24.0253 39.1118 23.5662 39.2024 23.1026 39.2024C22.639 39.2024 22.1799 39.1118 21.7518 38.9359C21.3236 38.76 20.9347 38.5023 20.6075 38.1774C18.8004 36.3899 19.4678 33.4141 21.7678 32.4899V19.9977C19.6321 19.1344 19.2419 16.8797 19.858 15.4274L14.6419 10.2578L0.872709 23.8774C0.318431 24.4275 0.00720215 25.1725 0.00720215 25.9492C0.00720215 26.7259 0.318431 27.471 0.872709 28.0211L20.9566 47.8867C21.5128 48.435 22.2661 48.7428 23.0513 48.7428C23.8365 48.7428 24.5897 48.435 25.1459 47.8867L45.1374 28.1125C45.6917 27.5624 46.0029 26.8173 46.0029 26.0406C46.0029 25.264 45.6917 24.5189 45.1374 23.9688V23.9789Z" fill="#626B92"/>
</g>
<defs>
<clipPath id="clip0_35_236">
<rect width="46" height="52" fill="white"/>
</clipPath>
</defs>
</svg>
