<svg width="69" height="78" viewBox="0 0 69 78" fill="none" xmlns="http://www.w3.org/2000/svg">
<g clip-path="url(#clip0_29_12)">
<path d="M67.7062 35.9684L37.5803 6.16992C36.746 5.34754 35.6162 4.88577 34.4384 4.88577C33.2605 4.88577 32.1307 5.34754 31.2964 6.16992L25.0279 12.3551L32.9598 20.2008C37.1337 18.8145 41.0765 22.7602 39.6442 26.8582L47.2989 34.4297C52.5663 32.632 56.7248 39.1523 52.7665 43.0676C48.685 47.1047 41.9544 42.6258 44.1415 37.3852L36.9951 30.3164V48.8871C40.8917 50.7914 40.4297 55.2703 38.3966 57.266C37.9058 57.7534 37.3225 58.14 36.6803 58.4039C36.038 58.6677 35.3494 58.8036 34.654 58.8036C33.9585 58.8036 33.2699 58.6677 32.6277 58.4039C31.9854 58.14 31.4022 57.7534 30.9114 57.266C28.2006 54.5848 29.2018 50.1211 32.6518 48.7348V29.9965C29.4482 28.7016 28.8629 25.3195 29.787 23.141L21.9629 15.3867L1.30913 35.816C0.477708 36.6412 0.0108643 37.7588 0.0108643 38.9238C0.0108643 40.0889 0.477708 41.2064 1.30913 42.0316L31.435 71.8301C32.2693 72.6525 33.3991 73.1142 34.577 73.1142C35.7548 73.1142 36.8846 72.6525 37.7189 71.8301L67.7062 42.1687C68.5376 41.3435 69.0045 40.226 69.0045 39.0609C69.0045 37.8959 68.5376 36.7784 67.7062 35.9531V35.9684Z" fill="#ECAA71"/>
</g>
<defs>
<clipPath id="clip0_29_12">
<rect width="69" height="78" fill="white"/>
</clipPath>
</defs>
</svg>
