<svg width="67" height="76" viewBox="0 0 67 76" fill="none" xmlns="http://www.w3.org/2000/svg">
<path d="M0 4.75V71.25H67V4.75H0ZM36.4612 56.6141C36.4612 63.0859 32.6326 66.0398 27.0542 66.0398C22.0143 66.0398 19.098 63.457 17.6025 60.325L22.7321 57.2523C23.7192 58.9891 24.6165 60.4586 26.785 60.4586C28.8489 60.4586 30.165 59.657 30.165 56.525V35.2836H36.4612V56.6141ZM51.3567 66.0398C45.5092 66.0398 41.7254 63.2789 39.8859 59.657L45.0156 56.718C46.3616 58.9 48.1263 60.518 51.2221 60.518C53.8243 60.518 55.4993 59.2266 55.4993 57.4305C55.4993 55.293 53.7944 54.5359 50.908 53.2742L49.3377 52.6063C44.7913 50.6914 41.7853 48.2719 41.7853 43.1805C41.7853 38.4898 45.3895 34.9273 50.9978 34.9273C55.0058 34.9273 57.8772 36.3078 59.9411 39.9297L55.0357 43.0469C53.9589 41.132 52.7924 40.375 50.9828 40.375C49.1433 40.375 47.9768 41.5328 47.9768 43.0469C47.9768 44.9172 49.1433 45.6742 51.8502 46.8469L53.4205 47.5148C58.7746 49.7859 61.7806 52.1164 61.7806 57.3414C61.7806 62.9523 57.3239 66.0398 51.3567 66.0398Z" fill="#ECAA71"/>
</svg>
