<svg width="71" height="71" viewBox="0 0 71 71" fill="none" xmlns="http://www.w3.org/2000/svg">
<path d="M57.9926 24.5727C57.2438 24.3231 56.4949 24.0873 55.7461 23.8654C55.8709 23.3523 55.9818 22.8393 56.0928 22.3262C57.7984 14.0613 56.6752 7.41895 52.8895 5.22794C49.2424 3.13399 43.2934 5.31114 37.275 10.5529C36.6787 11.066 36.0963 11.6068 35.5416 12.1477C35.1672 11.7871 34.7789 11.4266 34.3906 11.0799C28.0811 5.47754 21.7576 3.12012 17.9719 5.32501C14.3387 7.43282 13.257 13.6869 14.7824 21.508C14.935 22.2846 15.1014 23.0473 15.2955 23.8238C14.408 24.0734 13.5344 24.3508 12.7162 24.642C5.31113 27.2074 0 31.2566 0 35.4445C0 39.7711 5.65781 44.1115 13.3541 46.7463C13.9781 46.9543 14.6021 47.1623 15.24 47.3426C15.032 48.1746 14.8518 48.9928 14.6854 49.8387C13.2293 57.535 14.3664 63.6365 17.9996 65.7305C21.7437 67.8938 28.0395 65.675 34.1688 60.3084C34.6541 59.8785 35.1395 59.4348 35.6248 58.9633C36.235 59.5596 36.8729 60.1281 37.5107 60.6828C43.4459 65.7859 49.3117 67.8522 52.9311 65.7582C56.6752 63.5949 57.8955 57.0357 56.3146 49.0482C56.1898 48.4381 56.0512 47.8141 55.8986 47.1762C56.3424 47.0514 56.7723 46.9127 57.2021 46.774C65.2035 44.1254 71 39.8404 71 35.4445C71 31.2428 65.5363 27.1658 57.9926 24.5727ZM39.2303 12.7994C44.3889 8.30645 49.2008 6.54532 51.3918 7.80723C53.7354 9.15235 54.6367 14.5883 53.1668 21.7299C53.0697 22.2014 52.9727 22.659 52.8479 23.1166C49.7693 22.4232 46.6492 21.924 43.5152 21.6467C41.7125 19.0674 39.7434 16.599 37.6078 14.2832C38.1486 13.7701 38.6756 13.2848 39.2303 12.7994ZM23.1859 42.6416C23.8932 43.8481 24.6143 45.0545 25.377 46.2332C23.2137 45.9975 21.0643 45.6508 18.9426 45.1932C19.5527 43.1963 20.3154 41.1301 21.2029 39.0223C21.8408 40.2426 22.4926 41.449 23.1859 42.6416ZM18.9842 25.9594C20.9811 25.5156 23.1027 25.1551 25.3076 24.8777C24.5727 26.0287 23.8516 27.2074 23.1721 28.4C22.4926 29.5787 21.827 30.7852 21.2029 32.0055C20.3293 29.9393 19.5943 27.9147 18.9842 25.9594ZM22.7838 35.5139C23.699 33.6002 24.6975 31.7281 25.7514 29.8838C26.8053 28.0395 27.9424 26.2506 29.135 24.4895C31.215 24.3369 33.3367 24.2537 35.5 24.2537C37.6633 24.2537 39.7988 24.3369 41.865 24.4895C43.0438 26.2367 44.167 28.0256 45.2348 29.8561C46.3025 31.6865 47.301 33.5586 48.2439 35.4584C47.3148 37.3721 46.3164 39.258 45.2486 41.1162C44.1947 42.9606 43.0715 44.7494 41.8928 46.5244C39.8266 46.677 37.6771 46.7463 35.5 46.7463C33.3229 46.7463 31.215 46.677 29.1766 46.5522C27.9701 44.791 26.833 42.9883 25.7652 41.144C24.6975 39.2996 23.7129 37.4275 22.7838 35.5139ZM47.8279 42.6139C48.5352 41.3936 49.2008 40.1594 49.8525 38.9113C50.74 40.9221 51.5166 42.9606 52.1961 45.0545C50.0467 45.5398 47.8695 45.9143 45.6785 46.1639C46.4273 44.999 47.1346 43.8064 47.8279 42.6139ZM49.8248 32.0055C49.173 30.7852 48.5074 29.5648 47.8141 28.3723C47.1346 27.1936 46.4273 26.0287 45.6924 24.8777C47.925 25.1551 50.0605 25.5295 52.0574 25.9871C51.4195 28.0395 50.6707 30.0363 49.8248 32.0055ZM35.5277 16.4049C36.9838 17.9857 38.3566 19.6498 39.6324 21.3693C36.8867 21.2445 34.1271 21.2445 31.3814 21.3693C32.7404 19.5805 34.141 17.9164 35.5277 16.4049ZM19.4418 7.9043C21.7715 6.54532 26.9439 8.48672 32.3937 13.3125C32.7404 13.6176 33.0871 13.9504 33.4477 14.2832C31.2982 16.599 29.3152 19.0674 27.4986 21.6467C24.3646 21.924 21.2584 22.4094 18.1799 23.0889C17.9996 22.3816 17.8471 21.6606 17.6945 20.9395C16.391 14.2277 17.2508 9.16622 19.4418 7.9043ZM16.0443 44.4582C15.4619 44.2918 14.8934 44.1115 14.3248 43.9174C11.3711 42.9883 8.01523 41.5184 5.58848 39.5908C4.18789 38.6201 3.24492 37.1225 2.98145 35.4445C2.98145 32.9068 7.36348 29.6619 13.6869 27.457C14.4773 27.1797 15.2816 26.9301 16.0859 26.6943C17.0289 29.7035 18.166 32.6572 19.4834 35.5139C18.1521 38.4121 17.0012 41.4074 16.0443 44.4582ZM32.2135 58.0481C29.9254 60.142 27.2768 61.8061 24.3924 62.9432C22.8531 63.6781 21.0781 63.7475 19.4973 63.1234C17.2924 61.8477 16.3771 56.9525 17.6252 50.3656C17.7777 49.5891 17.9441 48.8125 18.1383 48.0498C21.2445 48.7154 24.3785 49.173 27.5541 49.4088C29.3846 52.002 31.3953 54.4842 33.5447 56.8139C33.101 57.2438 32.6572 57.6598 32.2135 58.0481ZM35.6109 54.6783C34.1965 53.1529 32.782 51.4611 31.4092 49.6445C32.7404 49.7 34.1133 49.7277 35.5 49.7277C36.9283 49.7277 38.3289 49.7 39.7156 49.6307C38.4398 51.3918 37.067 53.0697 35.6109 54.6783ZM53.7354 58.8385C53.6105 60.5303 52.7785 62.1111 51.4473 63.1789C49.2424 64.4547 44.5414 62.7906 39.466 58.4363C38.8836 57.9371 38.3012 57.3963 37.7049 56.8416C39.8266 54.4981 41.7818 52.0158 43.5568 49.4088C46.7324 49.1453 49.8941 48.66 53.0143 47.9527C53.1529 48.5213 53.2777 49.0898 53.3887 49.6445C54.0682 52.6398 54.1791 55.76 53.7354 58.8385ZM56.2592 43.9313C55.8709 44.0561 55.4826 44.1809 55.0805 44.2918C54.1098 41.2688 52.9172 38.315 51.5443 35.4445C52.8756 32.6156 53.9988 29.7035 54.9418 26.7221C55.6629 26.9301 56.3563 27.152 57.0219 27.3738C63.484 29.5926 68.0186 32.893 68.0186 35.4168C68.0186 38.1348 63.1789 41.6432 56.2592 43.9313ZM35.5 41.8512C39.0084 41.8512 41.8512 39.0084 41.8512 35.5C41.8512 31.9916 39.0084 29.1488 35.5 29.1488C31.9916 29.1488 29.1488 31.9916 29.1488 35.5C29.1488 39.0084 31.9916 41.8512 35.5 41.8512Z" fill="#ECAA71"/>
</svg>
