<svg width="55" height="44" viewBox="0 0 55 44" fill="none" xmlns="http://www.w3.org/2000/svg">
<g clip-path="url(#clip0_35_232)">
<path d="M25.936 32.5617C25.8844 32.6563 25.9102 32.6133 25.936 32.5617V32.5617ZM47.343 25.0852C45.6146 25.0847 43.9092 25.4817 42.3586 26.2453C41.8516 25.2227 41.3274 24.3289 41.2414 23.6586C41.1383 22.8766 41.0266 22.4125 41.1469 21.4844C41.2672 20.5563 41.8086 19.2414 41.8 19.1469C41.7914 19.0524 41.6797 18.5797 40.5711 18.5711C39.4625 18.5625 38.5086 18.7859 38.3969 19.0781C38.2011 19.6121 38.0488 20.161 37.9414 20.7195C37.7438 21.725 35.7243 25.3172 34.5813 27.1906C34.2032 26.4602 33.8852 25.8156 33.8164 25.3C33.7133 24.518 33.6016 24.0539 33.7219 23.1258C33.8422 22.1977 34.3836 20.8828 34.375 20.7883C34.3664 20.6938 34.2547 20.2211 33.1461 20.2125C32.0375 20.2039 31.0836 20.4274 30.9719 20.7195C30.8602 21.0117 30.7399 21.6992 30.5164 22.361C30.293 23.0227 27.6032 29.0039 26.8985 30.5594C26.5375 31.35 26.2282 31.9859 26.0047 32.4156C25.9704 32.4844 25.9446 32.5274 25.9274 32.5617C25.9532 32.5188 25.9704 32.4758 25.9704 32.493C25.7813 32.8625 25.6696 33.0688 25.6696 33.0688V33.0774C25.5235 33.3524 25.3602 33.6016 25.2829 33.6016C25.2313 33.6016 25.1196 32.8797 25.3086 31.8914C25.7125 29.8117 26.6664 26.5805 26.6579 26.4688C26.6493 26.4086 26.8383 25.85 26.0305 25.5492C25.2485 25.2656 24.9649 25.7383 24.8961 25.7383C24.8274 25.7383 24.7758 25.9102 24.7758 25.9102C24.7758 25.9102 25.6438 22.2664 23.1086 22.2664C21.5274 22.2664 19.3274 24.0024 18.2446 25.575C17.5657 25.9445 16.0961 26.7438 14.5493 27.5945C13.9563 27.9211 13.3461 28.2563 12.7703 28.5742C12.7274 28.5313 12.693 28.4883 12.65 28.4453C9.57347 25.1625 3.89301 22.8422 4.13363 18.4336C4.21957 16.8266 4.77816 12.607 15.0563 7.48517C23.4782 3.29142 30.2157 4.44298 31.3672 7.00392C33.0344 10.6563 27.7664 17.4539 19.018 18.4336C15.6836 18.8031 13.9305 17.5141 13.4922 17.0328C13.0368 16.5258 12.968 16.5 12.7961 16.5945C12.5125 16.7492 12.693 17.1961 12.7961 17.4625C13.0539 18.1414 14.1282 19.3445 15.9586 19.9461C17.5657 20.4703 21.4758 20.7625 26.2024 18.932C31.5133 16.8867 35.6469 11.1891 34.4352 6.41954C33.2149 1.57267 25.1797 -0.0171762 17.5828 2.68126C13.0539 4.28829 8.15551 6.81485 4.63207 10.1063C0.446912 14.025 -0.223401 17.4367 0.0515989 18.8633C1.03129 23.925 8.00941 27.225 10.8024 29.6656C10.6649 29.743 10.536 29.8117 10.4157 29.8805C9.01488 30.5766 3.69535 33.3609 2.36332 36.3C0.859411 39.6344 2.61254 42.0234 3.7641 42.35C7.35629 43.3469 11.0344 41.5508 13.011 38.6031C14.9875 35.6555 14.7469 31.8055 13.836 30.0524C13.8274 30.0266 13.8102 30.0094 13.8016 29.9836C14.1625 29.7688 14.5321 29.5539 14.9016 29.3391C15.6149 28.918 16.311 28.5313 16.9211 28.1961C16.5774 29.1242 16.3282 30.2414 16.1993 31.857C16.0446 33.7477 16.8266 36.1969 17.8407 37.1594C18.2875 37.5805 18.8289 37.5891 19.1641 37.5891C20.35 37.5891 20.8828 36.6094 21.4758 35.4406C22.2063 34.0141 22.8508 32.3555 22.8508 32.3555C22.8508 32.3555 22.043 36.8414 24.2516 36.8414C25.0594 36.8414 25.8672 35.8016 26.2282 35.2688V35.2774C26.2282 35.2774 26.2453 35.243 26.2883 35.1742C26.3743 35.0453 26.4172 34.968 26.4172 34.968V34.9422C26.7438 34.3836 27.4571 33.1031 28.5313 30.9891C29.9235 28.2563 31.2555 24.8445 31.2555 24.8445C31.3841 25.5945 31.5621 26.3352 31.7883 27.0617C32.0289 27.8781 32.536 28.7719 32.9399 29.6399C32.6133 30.0867 32.4157 30.3445 32.4157 30.3445C32.4162 30.3512 32.4193 30.3573 32.4243 30.3617C32.1664 30.7055 31.8743 31.075 31.5735 31.4359C30.4735 32.7422 29.1672 34.2375 28.9953 34.6672C28.7891 35.1742 28.8407 35.5524 29.236 35.8445C29.5282 36.068 30.0438 36.1024 30.5852 36.0594C31.5735 35.9906 32.2696 35.75 32.6047 35.5953C33.2229 35.3738 33.8072 35.0672 34.3407 34.6844C35.4149 33.8938 36.068 32.7594 36.0079 31.2641C35.9735 30.4391 35.7071 29.6141 35.3805 28.8406C35.475 28.7031 35.5782 28.557 35.6727 28.4109C37.3657 25.9274 38.6805 23.2031 38.6805 23.2031C38.8091 23.9531 38.9871 24.6938 39.2133 25.4203C39.4196 26.1164 39.8235 26.8813 40.193 27.6289C38.5946 28.9266 37.6063 30.4305 37.2625 31.4188C36.6266 33.2492 37.125 34.0742 38.0618 34.2633C38.4828 34.3492 39.0844 34.1516 39.5313 33.9625C40.1952 33.7415 40.8213 33.4198 41.3875 33.0086C42.4618 32.218 43.5016 31.1094 43.4328 29.6055C43.4071 28.9266 43.218 28.2477 42.9688 27.5945C44.318 27.0274 46.0711 26.718 48.3055 26.9758C53.0922 27.5344 54.0289 30.525 53.8485 31.7711C53.668 33.0172 52.6625 33.7133 52.3274 33.9195C51.9922 34.1258 51.8891 34.2031 51.9149 34.3578C51.9578 34.5813 52.1125 34.5727 52.3961 34.5211C52.7914 34.4524 54.9055 33.507 55 31.1953C55.1375 28.2734 52.3274 25.0594 47.3516 25.0852H47.343ZM10.4586 37.5203C8.87738 39.2477 6.66019 39.9008 5.70629 39.3508C4.69222 38.7578 5.09613 36.2141 7.04691 34.375C8.23285 33.2578 9.76254 32.2266 10.7766 31.5906C11.0086 31.4531 11.3438 31.2469 11.7563 30.9977C11.825 30.9547 11.8594 30.9375 11.8594 30.9375C11.9368 30.8859 12.0227 30.843 12.1086 30.7914C12.8219 33.4039 12.1344 35.707 10.4672 37.5203H10.4586ZM22.0086 29.6656C21.4586 31.0149 20.2985 34.4524 19.5938 34.2719C18.9922 34.1172 18.6227 31.4961 19.4735 28.918C19.9032 27.6203 20.8141 26.0734 21.3555 25.4719C22.2235 24.5008 23.1774 24.1914 23.4008 24.5781C23.7016 25.0852 22.3524 28.8234 22.0086 29.6656ZM31.5477 34.2203C31.3157 34.3406 31.1008 34.418 30.9977 34.3578C30.9204 34.3149 31.0922 34.1516 31.0922 34.1516C31.0922 34.1516 32.2868 32.8711 32.7594 32.2867C33.0344 31.943 33.3524 31.5391 33.6961 31.0922C33.6961 31.1352 33.7047 31.1781 33.7047 31.2297C33.6961 32.768 32.218 33.8078 31.5477 34.2203ZM38.9039 32.5445C38.7321 32.4242 38.7579 32.0203 39.3336 30.7656C39.5571 30.2758 40.0727 29.4508 40.9664 28.6602C41.0677 28.9595 41.1227 29.2724 41.1297 29.5883C41.1211 31.5219 39.7375 32.2438 38.9039 32.5445Z" fill="#626B92"/>
</g>
<defs>
<clipPath id="clip0_35_232">
<rect width="55" height="44" fill="white"/>
</clipPath>
</defs>
</svg>
