<svg width="88" height="71" viewBox="0 0 88 71" fill="none" xmlns="http://www.w3.org/2000/svg">
<g clip-path="url(#clip0_28_8)">
<path d="M41.4975 52.5428C41.415 52.6953 41.4562 52.626 41.4975 52.5428V52.5428ZM75.7487 40.4783C72.9833 40.4776 70.2546 41.1181 67.7737 42.3504C66.9625 40.7002 66.1237 39.258 65.9862 38.1764C65.8212 36.9145 65.6425 36.1656 65.835 34.668C66.0275 33.1703 66.8937 31.0486 66.88 30.8961C66.8662 30.7436 66.6875 29.9809 64.9137 29.967C63.14 29.9531 61.6137 30.3137 61.435 30.7852C61.1217 31.6468 60.878 32.5326 60.7062 33.4338C60.39 35.0563 57.1587 40.8527 55.33 43.8758C54.725 42.6971 54.2162 41.657 54.1062 40.825C53.9412 39.5631 53.7625 38.8143 53.955 37.3166C54.1475 35.819 55.0137 33.6973 55 33.5447C54.9862 33.3922 54.8075 32.6295 53.0337 32.6156C51.26 32.6018 49.7337 32.9623 49.555 33.4338C49.3762 33.9053 49.1837 35.0147 48.8262 36.0824C48.4687 37.1502 44.165 46.8018 43.0375 49.3117C42.46 50.5875 41.965 51.6137 41.6075 52.307C41.5525 52.418 41.5112 52.4873 41.4837 52.5428C41.525 52.4734 41.5525 52.4041 41.5525 52.4318C41.25 53.0281 41.0712 53.3609 41.0712 53.3609V53.3748C40.8375 53.8186 40.5762 54.2207 40.4525 54.2207C40.37 54.2207 40.1912 53.0559 40.4937 51.4611C41.14 48.1053 42.6662 42.8912 42.6525 42.7109C42.6387 42.6139 42.9412 41.7125 41.6487 41.2271C40.3975 40.7695 39.9437 41.5322 39.8337 41.5322C39.7237 41.5322 39.6412 41.8096 39.6412 41.8096C39.6412 41.8096 41.03 35.9299 36.9737 35.9299C34.4437 35.9299 30.9237 38.7311 29.1912 41.2688C28.105 41.865 25.7537 43.1547 23.2787 44.5275C22.33 45.0545 21.3537 45.5953 20.4325 46.1084C20.3637 46.0391 20.3087 45.9697 20.24 45.9004C15.3175 40.6031 6.22872 36.859 6.61372 29.7451C6.75122 27.152 7.64497 20.3432 24.09 12.0783C37.565 5.31114 48.345 7.16934 50.1875 11.3018C52.855 17.1953 44.4262 28.1643 30.4287 29.7451C25.0937 30.3414 22.2887 28.2613 21.5875 27.4848C20.8587 26.6666 20.7487 26.625 20.4737 26.7775C20.02 27.0272 20.3087 27.7482 20.4737 28.1781C20.8862 29.2736 22.605 31.215 25.5337 32.1857C28.105 33.0316 34.3612 33.5031 41.9237 30.5494C50.4212 27.249 57.035 18.0551 55.0962 10.3588C53.1437 2.5377 40.2875 -0.0277312 28.1325 4.32657C20.8862 6.91973 13.0487 10.9967 7.41122 16.3078C0.714973 22.6313 -0.357527 28.1365 0.0824728 30.4385C1.64997 38.6063 12.815 43.9313 17.2837 47.8695C17.0637 47.9943 16.8575 48.1053 16.665 48.2162C14.4237 49.3395 5.91247 53.8324 3.78122 58.575C1.37497 63.9555 4.17997 67.8105 6.02247 68.3375C11.77 69.9461 17.655 67.0479 20.8175 62.2914C23.98 57.535 23.595 51.3225 22.1375 48.4936C22.1237 48.452 22.0962 48.4242 22.0825 48.3826C22.66 48.0359 23.2512 47.6893 23.8425 47.3426C24.9837 46.6631 26.0975 46.0391 27.0737 45.4982C26.5237 46.9959 26.125 48.7986 25.9187 51.4057C25.6712 54.4564 26.9225 58.4086 28.545 59.9617C29.26 60.6412 30.1262 60.6551 30.6625 60.6551C32.56 60.6551 33.4125 59.0742 34.3612 57.1883C35.53 54.8863 36.5612 52.21 36.5612 52.21C36.5612 52.21 35.2687 59.4486 38.8025 59.4486C40.095 59.4486 41.3875 57.7707 41.965 56.9109V56.9248C41.965 56.9248 41.9925 56.8693 42.0612 56.7584C42.1987 56.5504 42.2675 56.4256 42.2675 56.4256V56.384C42.79 55.4826 43.9312 53.4164 45.65 50.0051C47.8775 45.5953 50.0087 40.09 50.0087 40.09C50.2145 41.3002 50.4993 42.4954 50.8612 43.6678C51.2462 44.9852 52.0575 46.4273 52.7037 47.8279C52.1812 48.549 51.865 48.965 51.865 48.965C51.8658 48.9757 51.8708 48.9857 51.8787 48.9928C51.4662 49.5475 50.9987 50.1437 50.5175 50.7262C48.7575 52.834 46.6675 55.2469 46.3925 55.9402C46.0625 56.7584 46.145 57.3686 46.7775 57.84C47.245 58.2006 48.07 58.2561 48.9362 58.1867C50.5175 58.0758 51.6312 57.6875 52.1675 57.4379C53.1566 57.0805 54.0914 56.5858 54.945 55.968C56.6637 54.6922 57.7087 52.8617 57.6125 50.4488C57.5575 49.1176 57.1312 47.7863 56.6087 46.5383C56.76 46.3164 56.925 46.0807 57.0762 45.8449C59.785 41.8373 61.8887 37.4414 61.8887 37.4414C62.0945 38.6516 62.3793 39.8468 62.7412 41.0191C63.0712 42.1424 63.7175 43.3766 64.3087 44.583C61.7512 46.677 60.17 49.1037 59.62 50.6984C58.6025 53.6521 59.4 54.9834 60.8987 55.2885C61.5725 55.4272 62.535 55.1082 63.25 54.8031C64.3123 54.4465 65.314 53.9273 66.22 53.2639C67.9387 51.9881 69.6025 50.1992 69.4925 47.7725C69.4512 46.677 69.1487 45.5814 68.75 44.5275C70.9087 43.6123 73.7137 43.1131 77.2887 43.5291C84.9475 44.4305 86.4462 49.2563 86.1575 51.267C85.8687 53.2777 84.26 54.401 83.7237 54.7338C83.1875 55.0666 83.0225 55.1914 83.0637 55.441C83.1325 55.8016 83.38 55.7877 83.8337 55.7045C84.4662 55.5936 87.8487 54.0682 88 50.3379C88.22 45.623 83.7237 40.4367 75.7625 40.4783H75.7487ZM16.7337 60.5441C14.2037 63.3314 10.6562 64.3854 9.12997 63.4979C7.50747 62.541 8.15372 58.4363 11.275 55.4688C13.1725 53.666 15.62 52.002 17.2425 50.9758C17.6137 50.7539 18.15 50.4211 18.81 50.0189C18.92 49.9496 18.975 49.9219 18.975 49.9219C19.0987 49.8387 19.2362 49.7693 19.3737 49.6861C20.515 53.9018 19.415 57.6182 16.7475 60.5441H16.7337ZM35.2137 47.8695C34.3337 50.0467 32.4775 55.5936 31.35 55.3023C30.3875 55.0527 29.7962 50.8232 31.1575 46.6631C31.845 44.5691 33.3025 42.073 34.1687 41.1023C35.5575 39.5354 37.0837 39.0361 37.4412 39.6602C37.9225 40.4783 35.7637 46.5106 35.2137 47.8695ZM50.4762 55.2191C50.105 55.4133 49.7612 55.5381 49.5962 55.441C49.4725 55.3717 49.7475 55.1082 49.7475 55.1082C49.7475 55.1082 51.6587 53.042 52.415 52.099C52.855 51.5443 53.3637 50.8926 53.9137 50.1715C53.9137 50.2408 53.9275 50.3102 53.9275 50.3934C53.9137 52.8756 51.5487 54.5535 50.4762 55.2191ZM62.2462 52.515C61.9712 52.3209 62.0125 51.6691 62.9337 49.6445C63.2912 48.8541 64.1162 47.5229 65.5462 46.2471C65.7082 46.73 65.7963 47.235 65.8075 47.7447C65.7937 50.8648 63.58 52.0297 62.2462 52.515Z" fill="#ECAA71"/>
</g>
<defs>
<clipPath id="clip0_28_8">
<rect width="88" height="71" fill="white"/>
</clipPath>
</defs>
</svg>
